<?xml version="1.0" standalone="no"?>
<!DOCTYPE svg PUBLIC "-//W3C//DTD SVG 20010904//EN"
 "http://www.w3.org/TR/2001/REC-SVG-20010904/DTD/svg10.dtd">
<svg version="1.0" xmlns="http://www.w3.org/2000/svg"
 width="310.000000pt" height="310.000000pt" viewBox="0 0 310.000000 310.000000"
 preserveAspectRatio="xMidYMid meet">
<metadata>
Created by potrace 1.11, written by Peter Selinger 2001-2013
</metadata>
<g transform="translate(0.000000,310.000000) scale(0.100000,-0.100000)"
fill="#000000" stroke="none">
<path d="M1454 2639 c-148 -19 -296 -164 -355 -347 -19 -60 -25 -70 -44 -67
-12 1 -26 5 -32 8 -11 7 -124 20 -163 20 -92 -2 -247 -33 -278 -56 -18 -14
-74 -45 -94 -53 -10 -3 -18 -10 -18 -15 0 -4 -21 -20 -47 -35 -27 -15 -53 -33
-59 -40 -6 -7 -17 -14 -24 -16 -14 -3 -21 -7 -55 -36 -8 -7 -15 -10 -15 -6 0
4 -8 0 -18 -9 -10 -10 -22 -14 -25 -10 -4 3 -7 1 -7 -6 0 -6 -10 -16 -22 -21
-33 -14 -61 -33 -75 -50 -7 -8 -13 -12 -13 -7 0 4 -9 -1 -19 -10 -31 -29 -46
-40 -69 -52 -20 -10 -22 -20 -22 -89 0 -43 4 -82 9 -87 4 -6 16 -34 27 -62 10
-29 21 -53 25 -53 5 0 40 -62 44 -80 1 -3 6 -16 12 -30 6 -14 14 -41 18 -60 4
-19 16 -50 26 -70 20 -38 58 -126 60 -138 0 -4 6 -16 12 -27 6 -11 12 -22 13
-25 0 -3 8 -22 17 -42 10 -21 17 -42 17 -47 0 -5 11 -23 25 -39 25 -29 26 -30
68 -17 54 16 166 12 178 -7 5 -7 9 -10 9 -6 0 4 25 -2 55 -12 30 -10 55 -16
55 -13 0 3 6 0 13 -6 8 -6 22 -12 33 -14 10 -1 25 -6 32 -10 7 -5 25 -11 40
-13 15 -3 59 -16 97 -30 39 -14 75 -26 80 -28 15 -4 47 -17 70 -26 27 -12 125
-41 150 -45 11 -1 38 -10 60 -20 22 -9 48 -19 58 -21 9 -2 25 -6 35 -8 9 -3
36 -11 59 -19 22 -9 44 -13 47 -10 3 4 6 1 6 -6 0 -7 5 -9 10 -6 6 3 10 1 10
-5 0 -6 4 -9 9 -5 5 3 12 1 15 -4 5 -8 60 -24 122 -35 21 -4 32 -9 81 -34 13
-7 36 -12 51 -12 16 0 32 -3 35 -7 12 -11 80 -10 135 2 67 16 68 16 135 41 20
8 40 14 45 14 8 0 83 27 132 48 19 8 44 17 54 19 11 2 46 17 78 33 32 16 58
26 58 22 0 -4 4 -2 8 5 4 6 19 14 32 16 14 3 56 19 93 36 38 17 74 31 80 31 6
0 18 7 27 15 10 9 28 18 41 20 67 13 88 19 137 42 28 13 52 29 52 34 0 5 6 9
13 9 6 0 34 11 61 25 27 14 58 25 68 25 10 0 18 4 18 9 0 5 10 11 23 13 22 3
22 4 25 206 3 222 7 207 -58 203 -14 -1 -35 1 -48 4 -21 5 -23 10 -17 43 19
110 11 150 -40 198 -31 29 -109 59 -127 48 -4 -3 -18 -7 -30 -9 -26 -5 -83
-61 -98 -96 -5 -13 -23 -46 -39 -74 -49 -84 -133 -256 -135 -277 -1 -5 -5 -7
-9 -5 -5 1 -13 -6 -18 -16 -6 -9 -14 -15 -20 -12 -5 4 -9 2 -9 -4 0 -9 -68
-37 -82 -33 -5 1 -8 -3 -8 -8 0 -5 -3 -9 -7 -8 -5 0 -15 -2 -23 -5 -18 -7
-129 -37 -150 -40 -9 -2 -20 -6 -25 -9 -11 -7 -117 -3 -169 5 -15 2 -31 9 -35
15 -11 18 -92 45 -128 43 -18 -1 -33 3 -33 8 0 10 -29 19 -90 26 -23 3 -50 10
-59 15 -10 5 -36 11 -59 14 -23 3 -47 8 -52 11 -5 3 -20 8 -32 10 -12 3 -25
10 -29 17 -7 11 -16 14 -69 20 -14 2 -28 7 -31 11 -3 5 -12 10 -20 11 -8 2
-27 8 -42 14 -16 7 -33 12 -38 12 -5 0 -9 5 -9 11 0 5 -5 7 -10 4 -6 -3 -17 0
-25 7 -30 27 -45 38 -50 38 -3 0 -4 1 -3 3 2 1 -11 17 -29 36 -30 31 -58 108
-44 121 3 3 7 19 7 36 3 73 89 129 134 89 11 -10 18 -20 16 -23 -8 -7 136
-162 152 -162 4 0 29 -20 55 -45 27 -25 71 -60 100 -79 29 -18 62 -43 73 -54
12 -11 42 -30 68 -41 25 -12 46 -25 46 -29 0 -7 30 -25 63 -38 9 -3 17 -12 17
-18 0 -27 66 -10 135 35 39 26 84 53 100 62 26 13 185 125 247 174 12 10 62
59 111 108 207 210 286 409 254 642 -18 135 -140 303 -265 366 -59 30 -186 48
-242 35 -19 -5 -44 -10 -54 -13 -28 -7 -92 -53 -129 -94 -18 -20 -48 -69 -67
-109 -31 -66 -50 -89 -50 -61 0 32 -67 143 -114 186 -92 86 -168 110 -302 92z"/>
</g>
</svg>
